<?xml version="1.0" encoding="UTF-8"?>
<!DOCTYPE svg PUBLIC "-//W3C//DTD SVG 1.1//EN" "http://www.w3.org/Graphics/SVG/1.1/DTD/svg11.dtd">
<!-- Creator: CorelDRAW X7 -->
<svg xmlns="http://www.w3.org/2000/svg" xml:space="preserve" width="138.158mm" height="161.394mm" version="1.1" style="shape-rendering:geometricPrecision; text-rendering:geometricPrecision; image-rendering:optimizeQuality; fill-rule:evenodd; clip-rule:evenodd"
viewBox="0 0 13816 16139"
 xmlns:xlink="http://www.w3.org/1999/xlink">
 <defs>
  <style type="text/css">
   <![CDATA[
    .fil0 {fill:#1A1A1A}
   ]]>
  </style>
 </defs>
 <g id="Layer_x0020_1">
  <metadata id="CorelCorpID_0Corel-Layer"/>
  <path class="fil0" d="M902 6634c-810,-985 -1105,-2177 -600,-2519 384,-260 6181,-5323 6498,-3571 103,564 1200,-153 2222,-491 1027,-339 622,1043 1092,1339 337,212 1999,-823 2407,-29 270,525 -561,1658 -308,2235 158,363 991,203 1389,425 963,537 -1686,2957 -950,4659 949,2198 -968,4155 -2474,4546 143,260 479,575 913,930 672,552 -82,1562 -816,958 -652,-535 -1353,-1222 -1424,-1990 -250,-37 -479,-88 -507,-94l-3 -1 -1 0c-183,-39 -371,-94 -555,-187 -343,-173 -614,-460 -756,-790 -147,-345 -160,-733 15,-1102 225,-477 575,-626 1005,-809 427,-182 990,-423 1404,-1453 190,-472 284,-966 290,-1379 2,-198 -8,-361 -31,-471 -36,10 -76,25 -119,43 -229,94 -489,274 -752,501 -894,768 -1120,1136 -1487,1734 -125,203 -265,432 -497,776 -94,141 -199,266 -315,365 -167,142 -357,232 -573,251 -197,17 -401,-9 -576,-70 -146,-51 -279,-130 -385,-232 -145,-142 -238,-320 -257,-531 -7,-77 -2,-157 15,-239 -39,-77 -206,-253 -466,-484 -376,-335 -903,-676 -1513,-891 -233,-82 -478,-145 -730,-183 -4,177 -4,352 -3,524 3,991 5,1890 -660,2475 99,87 247,160 366,220 216,107 390,193 524,393 267,398 224,743 -303,1101 5,36 26,84 66,145 82,121 222,256 433,398 301,202 396,446 499,711 51,132 109,280 266,326 102,31 403,-7 747,-51 742,-93 1632,-206 2386,184 710,366 860,777 777,1269 -134,798 -1321,723 -1310,-56 0,-47 -12,-80 -43,-96 -411,-212 -1088,-126 -1653,-55 -485,61 -910,115 -1259,12 -749,-222 -926,-676 -1083,-1080 -28,-72 1,-101 -26,-120 -356,-239 -610,-493 -778,-743 -175,-262 -263,-526 -279,-774 -14,-229 31,-441 125,-629 -119,-74 -242,-164 -359,-280 -261,-256 -430,-506 -475,-785 -65,-394 79,-716 486,-986 301,-201 299,-853 297,-1579 -1,-412 -2,-842 45,-1261l59 -509zm2233 3705c-241,-198 -597,-163 -795,78 -198,241 -164,597 78,796 291,240 609,359 954,362 320,3 642,-97 965,-294 267,-163 351,-511 188,-778 -162,-267 -511,-351 -777,-188 -143,87 -266,131 -368,130 -78,-1 -160,-35 -245,-106zm433 -3623c-439,-675 -743,-1515 -390,-2125 56,-96 1144,1057 1344,1267 372,391 -698,1251 -954,858z"/>
 </g>
</svg>
